<svg width="27" height="26" viewBox="0 0 27 26" fill="none" xmlns="http://www.w3.org/2000/svg">
<g id="carbon:recently-viewed">
<path id="Vector" d="M17.1044 17.875L12.5625 13.3331V5.6875H14.1875V12.6588L18.25 16.7294L17.1044 17.875Z" fill="black"/>
<path id="Vector_2" d="M13.375 3.25C12.0761 3.25018 10.7905 3.51101 9.59425 4.01702C8.398 4.52303 7.31545 5.26395 6.41071 6.19589V3.25H5.01786V8.82143H10.5893V7.42857H7.16286C8.46938 5.97672 10.2431 5.02835 12.1761 4.74816C14.1091 4.46797 16.0791 4.87366 17.7441 5.89478C19.4091 6.9159 20.6638 8.48794 21.2904 10.3379C21.917 12.1878 21.8758 14.1988 21.1741 16.0215C20.4723 17.8443 19.1543 19.3636 17.4489 20.3158C15.7435 21.2679 13.7585 21.5926 11.8387 21.2336C9.91879 20.8745 8.18531 19.8544 6.9393 18.3503C5.69329 16.8462 5.01345 14.9532 5.01786 13H3.625C3.625 14.9284 4.19683 16.8134 5.26817 18.4168C6.33951 20.0202 7.86226 21.2699 9.64384 22.0078C11.4254 22.7458 13.3858 22.9389 15.2771 22.5627C17.1684 22.1864 18.9057 21.2578 20.2693 19.8943C21.6328 18.5307 22.5614 16.7934 22.9377 14.9021C23.3139 13.0108 23.1208 11.0504 22.3828 9.26884C21.6449 7.48726 20.3952 5.96451 18.7918 4.89317C17.1884 3.82183 15.3034 3.25 13.375 3.25Z" fill="black"/>
</g>
</svg>
