<svg width="21" height="21" viewBox="0 0 21 21" fill="none" xmlns="http://www.w3.org/2000/svg">
<g id="Group">
<path id="Vector" d="M11.0406 8.17747C12.8041 8.17747 14.2336 6.74793 14.2336 4.98449C14.2336 3.22105 12.8041 1.7915 11.0406 1.7915C9.2772 1.7915 7.84766 3.22105 7.84766 4.98449C7.84766 6.74793 9.2772 8.17747 11.0406 8.17747Z" stroke="black" stroke-width="2" stroke-linecap="round" stroke-linejoin="round"/>
<path id="Vector_2" d="M1.91797 18.6689C1.91797 14.6379 5.59401 11.3706 10.1285 11.3706M14.6215 12.739C13.6517 12.739 12.8653 13.6554 12.8653 14.7853C12.8653 16.832 14.9408 18.6921 16.0583 19.125C17.1759 18.6921 19.2513 16.832 19.2513 14.7853C19.2513 13.6559 18.4649 12.739 17.4952 12.739C16.9013 12.739 16.3763 13.0825 16.0583 13.6084C15.7404 13.0825 15.2154 12.739 14.6215 12.739Z" stroke="black" stroke-width="2" stroke-linecap="round" stroke-linejoin="round"/>
</g>
</svg>
