<svg width="27" height="26" viewBox="0 0 27 26" fill="none" xmlns="http://www.w3.org/2000/svg">
<g id="SearchOutlined">
<path id="Vector" d="M17.4167 15.1667H16.5608L16.2575 14.8742C17.3192 13.6392 17.9583 12.0358 17.9583 10.2917C17.9583 6.4025 14.8058 3.25 10.9167 3.25C7.0275 3.25 3.875 6.4025 3.875 10.2917C3.875 14.1808 7.0275 17.3333 10.9167 17.3333C12.6608 17.3333 14.2642 16.6942 15.4992 15.6325L15.7917 15.9358V16.7917L21.2083 22.1975L22.8225 20.5833L17.4167 15.1667ZM10.9167 15.1667C8.21917 15.1667 6.04167 12.9892 6.04167 10.2917C6.04167 7.59417 8.21917 5.41667 10.9167 5.41667C13.6142 5.41667 15.7917 7.59417 15.7917 10.2917C15.7917 12.9892 13.6142 15.1667 10.9167 15.1667Z" fill="black"/>
</g>
</svg>
